<svg id="b36d154c-7bb0-49a6-b5f2-6e40ba56960a" data-name="Capa 1" xmlns="http://www.w3.org/2000/svg" width="91.09" height="119.66" viewBox="0 0 91.09 119.66"><path d="M64.29,25.35C55.91,17,47.92,9,45.54,0,43.17,9,35.17,17,26.8,25.35,14.24,37.9,0,52.13,0,73.46a45.55,45.55,0,1,0,91.09,0c0-21.33-14.29-35.56-26.8-48.11ZM31.94,39.42c6.08-5.94,11.88-11.6,13.6-18,1.73,6.38,7.53,12,13.61,18s12.57,12.3,16.33,20.34l-.3,0a49.22,49.22,0,0,1-5.4-1.26,43.64,43.64,0,0,1-6.86-2.66c-.24-.12-.45-.23-.63-.34a3.12,3.12,0,0,1-.74-.57c-.38-.45-.27-.9-.32-1.71,0-.47-.08-.91-.13-1.33a13.57,13.57,0,0,0-.48-2.26,8.16,8.16,0,0,0-.37-.95,6.09,6.09,0,0,0-.78-1.26,4.85,4.85,0,0,0-.49-.52,5.19,5.19,0,0,0-2.83-1.29,8.18,8.18,0,0,0-.89-.08,11.14,11.14,0,0,0-1.51.05,17.16,17.16,0,0,0-1.72.26l-.57.12L51,46l-.3,0H50.5a1.16,1.16,0,0,1-.42-.16l-.63-.39a9.7,9.7,0,0,0-1-.51,9.85,9.85,0,0,0-1-.36,7.3,7.3,0,0,0-4,0,8.87,8.87,0,0,0-1,.36,8.68,8.68,0,0,0-1,.51l-.3.19-.23.14-.32.17a1.08,1.08,0,0,1-.45,0,4.43,4.43,0,0,1-.49-.08l-.8-.17a13.78,13.78,0,0,0-3.22-.31,7,7,0,0,0-1.72.26,4.79,4.79,0,0,0-2,1.11,4,4,0,0,0-.49.52,5.72,5.72,0,0,0-.79,1.26c-.11.24-.21.5-.31.77a13.79,13.79,0,0,0-.58,2.8c0,.31-.06.63-.08,1,0,.16,0,.3,0,.44s0,.26,0,.37a1.47,1.47,0,0,1-.19.73,1.66,1.66,0,0,1-.25.3,3.34,3.34,0,0,1-.6.44,7,7,0,0,1-.63.34c-1.1.54-2.23,1-3.37,1.48-.58.22-1.15.43-1.73.62a46.86,46.86,0,0,1-5.34,1.47c-.6.13-1.21.25-1.81.35l-.21,0C19.35,51.71,25.91,45.3,31.94,39.42ZM58.53,52.63c0,.57-.12.56-.43.35a39.72,39.72,0,0,1-4.9-4c-.35-.34-.4-.57.16-.65,1.88-.3,3.12-.11,3.86.57S58.35,50.82,58.53,52.63ZM37.78,49a38.28,38.28,0,0,1-4.9,4c-.31.21-.48.22-.42-.35.17-1.81.57-3.05,1.3-3.72s2-.87,3.86-.57C38.19,48.42,38.13,48.65,37.78,49Zm40.76,30.1-.33-.23C69.63,73.1,61.46,66.83,54.47,59c-.27-.34-.78.05-.55.42,5.67,9.28,14,15.75,22.71,21.63a4.21,4.21,0,0,1,.94.85,3.82,3.82,0,0,1,.64,3.5,4.7,4.7,0,0,1-3.15,3.45l-.13-.12a131.49,131.49,0,0,1-22.19-27,.34.34,0,0,0-.61.32C56.5,72.73,63.36,81.31,71.38,89.13a8.94,8.94,0,0,1,2,2.23,3.75,3.75,0,0,1,.17,2.52,5.67,5.67,0,0,1-4.31,4.33,2.88,2.88,0,0,1-1.79-.07c-.91-.38-1.32-1.44-2.1-2.93C60,84.92,54.83,74.46,50.47,63.68a.34.34,0,0,0-.65.2c2.75,11.85,8.15,23,13.74,33.64.56,1.07,1.12,1.78,1,2.92A4.79,4.79,0,0,1,64,101.9a6,6,0,0,1-7.06,3,6.14,6.14,0,0,1-.9-.33c-1.65-.75-1.6-1.81-2.11-3.9-2.84-11.77-4.45-23.85-6.45-35.8a.34.34,0,0,0-.68,0,167.44,167.44,0,0,0,4.75,37.23c.46,1.88.63,2.34-.37,3.62L51,106A7.21,7.21,0,0,1,40,106c-.07-.08-.11-.14-.17-.22-1-1.27-.82-1.73-.36-3.6A168,168,0,0,0,44.2,65a.34.34,0,0,0-.68,0c-2,12-3.62,24-6.46,35.8-.5,2.07-.45,3.13-2.07,3.88a5.85,5.85,0,0,1-.94.35,6,6,0,0,1-7.06-3,4.35,4.35,0,0,1-.52-1.54c-.13-1.09.41-1.8,1-2.84,5.6-10.68,11-21.79,13.74-33.64a.34.34,0,0,0-.65-.2C36.16,74.46,31,84.92,25.6,95.21c-.76,1.45-1.16,2.49-2,2.91a2.82,2.82,0,0,1-1.87.09,5.67,5.67,0,0,1-4.31-4.33,3.71,3.71,0,0,1,.22-2.61,9.42,9.42,0,0,1,2-2.14c8-7.82,14.87-16.4,19.24-27.07a.34.34,0,0,0-.6-.32,131.65,131.65,0,0,1-22.13,27l-.19.19a4.68,4.68,0,0,1-3.15-3.45,3.8,3.8,0,0,1,.71-3.6,4.43,4.43,0,0,1,.87-.75c8.74-5.88,17-12.35,22.7-21.63.23-.37-.28-.76-.55-.42-7,7.76-15.1,14-23.64,19.76l-.42.29a4.59,4.59,0,0,1-1-4.86,3.75,3.75,0,0,1,1.09-1.64,9.14,9.14,0,0,1,2.15-1.13c7.94-3.55,15.87-8,21.38-15.09.25-.32-.15-.77-.48-.5-6.83,5.63-14.78,9.9-22.79,13.42l-.17.08a4.43,4.43,0,0,1,0-5.24,3.41,3.41,0,0,1,1.8-1.34,20.63,20.63,0,0,1,2.37-.44c9.56-1.78,18.13-6,24.82-13.34a5,5,0,0,1,7.9,0c6.7,7.34,15.26,11.56,24.82,13.34a16.7,16.7,0,0,1,2.49.48,3.44,3.44,0,0,1,1.68,1.3,4.41,4.41,0,0,1-.05,5.24l-.06,0c-8-3.53-16-7.81-22.89-13.47a.35.35,0,0,0-.48.5c5.5,7,13.43,11.54,21.37,15.09a8.1,8.1,0,0,1,2.26,1.22,3.8,3.8,0,0,1,1,1.55,4.59,4.59,0,0,1-1,4.86Z" fill="#ffffff"/></svg>