<svg id="b36d154c-7bb0-49a6-b5f2-6e40ba56960a" data-name="Capa 1" xmlns="http://www.w3.org/2000/svg" width="333.81" height="119.66" viewBox="0 0 333.81 119.66"><path d="M136.47,29.4a20.63,20.63,0,0,1-2.3,10.2,14.57,14.57,0,0,1-6.6,6.15,23.58,23.58,0,0,1-10.25,2H106.57V12.1h11.75a21.86,21.86,0,0,1,9.72,2,14.18,14.18,0,0,1,6.25,5.83,18.94,18.94,0,0,1,2.18,9.48Zm-8.8.3a15.19,15.19,0,0,0-1-6,7.16,7.16,0,0,0-3.05-3.5,10,10,0,0,0-5-1.15h-3.5V40.8h2.75q5.06,0,7.45-2.77c1.6-1.85,2.4-4.62,2.4-8.33Z" fill="#293156"/><path d="M158.77,19.85c.43,0,.92,0,1.45.08s.95.11,1.25.17l-.7,7.9a10,10,0,0,0-1.15-.17,14.55,14.55,0,0,0-1.55-.08,10.35,10.35,0,0,0-2.4.28,6.65,6.65,0,0,0-2.2.95,4.7,4.7,0,0,0-1.6,1.9,7.25,7.25,0,0,0-.6,3.17V47.8h-8.45V20.35h6.35l1.3,4.5h.35a10.73,10.73,0,0,1,2-2.52,9.66,9.66,0,0,1,2.73-1.8,7.88,7.88,0,0,1,3.22-.68Z" fill="#293156"/><path d="M191.82,20.35V47.8h-6.4l-1.1-3.5h-.5a7.28,7.28,0,0,1-2.17,2.28,9.87,9.87,0,0,1-2.9,1.3,12.64,12.64,0,0,1-3.27.42,11.47,11.47,0,0,1-5-1A7.64,7.64,0,0,1,167,44a11.62,11.62,0,0,1-1.25-5.72V20.35h8.45V35.9a8,8,0,0,0,.92,4.25,3.26,3.26,0,0,0,3,1.45,4.72,4.72,0,0,0,3.2-1,5.39,5.39,0,0,0,1.6-3,21.86,21.86,0,0,0,.45-4.78V20.35Z" fill="#293156"/><path d="M215,19.85a8.77,8.77,0,0,1,7.35,3.62q2.74,3.63,2.75,10.53a20.36,20.36,0,0,1-1.35,7.9,10.68,10.68,0,0,1-3.67,4.8,9.16,9.16,0,0,1-5.33,1.6,9.79,9.79,0,0,1-3.32-.5,8.33,8.33,0,0,1-2.35-1.27A10.17,10.17,0,0,1,207.48,45h-.35c.1.63.18,1.3.25,2s.1,1.45.1,2.25V59.8H199V20.35h6.85l1.2,3.5h.4a9.32,9.32,0,0,1,1.73-2,8.1,8.1,0,0,1,2.47-1.45,9.3,9.3,0,0,1,3.35-.55Zm-3,6.65a3.8,3.8,0,0,0-4.1,3,14,14,0,0,0-.5,3.73V34a17.18,17.18,0,0,0,.42,4.12,4.76,4.76,0,0,0,1.45,2.55,4.22,4.22,0,0,0,2.83.88,3.59,3.59,0,0,0,2.42-.83A5,5,0,0,0,216,38.15a15.94,15.94,0,0,0,.47-4.25,11,11,0,0,0-1.1-5.62,3.68,3.68,0,0,0-3.35-1.78Z" fill="#293156"/><path d="M243.22,19.8c3.57,0,6.33.83,8.3,2.48s2.95,4.09,2.95,7.32V47.8h-5.85L247,44.1h-.2a13.87,13.87,0,0,1-2.38,2.4,8.06,8.06,0,0,1-2.8,1.38,15.28,15.28,0,0,1-3.88.42,9.91,9.91,0,0,1-4.33-.95,7,7,0,0,1-3-2.9,9.91,9.91,0,0,1-1.1-5c0-2.93,1-5.1,3.08-6.5s5.06-2.18,9-2.35l4.7-.15v-.8a3.66,3.66,0,0,0-1-2.9,4.12,4.12,0,0,0-2.82-.9,13.35,13.35,0,0,0-3.75.57,35,35,0,0,0-3.95,1.43L232,22.3a20.33,20.33,0,0,1,5.1-1.85,27.83,27.83,0,0,1,6.15-.65Zm.3,15.6c-2.1.07-3.57.44-4.4,1.12a3.4,3.4,0,0,0-1.25,2.77,2.68,2.68,0,0,0,.9,2.25,3.62,3.62,0,0,0,2.3.7A5.15,5.15,0,0,0,244.62,41a4.38,4.38,0,0,0,1.45-3.47v-2.2l-2.55.1Z" fill="#293156"/><path d="M270,47.8h-8.45V9.8H270Z" fill="#293156"/><path d="M125.62,62.41a8.93,8.93,0,0,0-4.1.91,8.27,8.27,0,0,0-3,2.68,13,13,0,0,0-1.89,4.25,22.28,22.28,0,0,0-.65,5.61,21.36,21.36,0,0,0,1.06,7.2,8.94,8.94,0,0,0,3.27,4.48,9.67,9.67,0,0,0,5.63,1.53,20.78,20.78,0,0,0,5.25-.68q2.59-.67,5.49-1.74v8.5a26.68,26.68,0,0,1-5.6,1.71,33.68,33.68,0,0,1-6.14.53q-6.68,0-10.94-2.68a15.9,15.9,0,0,1-6.31-7.55,29.24,29.24,0,0,1-2-11.36,28,28,0,0,1,1.3-8.76,19,19,0,0,1,3.86-6.87,17.47,17.47,0,0,1,6.28-4.48,21.75,21.75,0,0,1,8.61-1.59,27.86,27.86,0,0,1,6.34.77,31.75,31.75,0,0,1,6.28,2.18l-3.13,8a38.71,38.71,0,0,0-4.72-1.89,15.61,15.61,0,0,0-4.84-.77Z" fill="#293156"/><path d="M159.07,63.76q6.31,0,9.79,2.92t3.48,8.64V96.8h-6.9l-1.95-4.37h-.24a16.33,16.33,0,0,1-2.8,2.83,9.09,9.09,0,0,1-3.3,1.62,18,18,0,0,1-4.57.5,11.55,11.55,0,0,1-5.1-1.12,8.18,8.18,0,0,1-3.57-3.42,11.71,11.71,0,0,1-1.3-5.84q0-5.19,3.63-7.67t10.65-2.77l5.54-.18v-.94A4.33,4.33,0,0,0,161.22,72,4.88,4.88,0,0,0,157.89,71a15.69,15.69,0,0,0-4.42.68,41.59,41.59,0,0,0-4.66,1.68l-3-6.61a24.29,24.29,0,0,1,6-2.18,32.66,32.66,0,0,1,7.26-.77Zm.36,18.41q-3.72.12-5.19,1.33a4,4,0,0,0-1.47,3.28,3.14,3.14,0,0,0,1.06,2.65,4.29,4.29,0,0,0,2.71.83,6.14,6.14,0,0,0,4.19-1.5,5.18,5.18,0,0,0,1.71-4.1v-2.6l-3,.12Z" fill="#293156"/><path d="M219.49,63.82q5.55,0,8.41,2.8t2.86,9.06V96.8h-9.91V78.45a9.43,9.43,0,0,0-1.09-5.16,3.75,3.75,0,0,0-3.33-1.62A4.61,4.61,0,0,0,212,74.12a15.13,15.13,0,0,0-1.3,7V96.8h-9.91V78.45a13.18,13.18,0,0,0-.47-3.81,4.46,4.46,0,0,0-1.42-2.24,3.93,3.93,0,0,0-2.48-.74A4.76,4.76,0,0,0,193,72.87a6.64,6.64,0,0,0-1.77,3.51,27.36,27.36,0,0,0-.5,5.66V96.79h-10V64.4h7.55l1.42,4.07h.41a9.07,9.07,0,0,1,2.36-2.57,10.2,10.2,0,0,1,3.25-1.56,14.29,14.29,0,0,1,3.95-.53,13.47,13.47,0,0,1,6,1.18,9,9,0,0,1,3.78,3.42H210A9.56,9.56,0,0,1,214.07,65a12.94,12.94,0,0,1,5.43-1.15Z" fill="#293156"/><path d="M258,63.82a10.33,10.33,0,0,1,8.67,4.28q3.24,4.28,3.25,12.42a24,24,0,0,1-1.59,9.32A12.48,12.48,0,0,1,264,95.5a10.8,10.8,0,0,1-6.28,1.89,11.6,11.6,0,0,1-3.92-.59A9.61,9.61,0,0,1,251,95.3a12.21,12.21,0,0,1-1.92-1.86h-.41c.12.75.22,1.53.29,2.36s.12,1.71.12,2.66V111h-10V64.42h8.08l1.42,4.13h.47a11.06,11.06,0,0,1,2-2.36,9.41,9.41,0,0,1,2.92-1.71,11.16,11.16,0,0,1,3.95-.65Zm-3.49,7.85a5.07,5.07,0,0,0-3.16.88,5,5,0,0,0-1.68,2.63,16.78,16.78,0,0,0-.59,4.4v.88a20.37,20.37,0,0,0,.5,4.87,5.6,5.6,0,0,0,1.71,3,5,5,0,0,0,3.33,1,4.27,4.27,0,0,0,2.86-1,5.79,5.79,0,0,0,1.71-3,19.13,19.13,0,0,0,.56-5q0-4.55-1.3-6.64a4.32,4.32,0,0,0-4-2.09Z" fill="#293156"/><path d="M64.29,25.35C55.91,17,47.92,9,45.54,0,43.17,9,35.17,17,26.8,25.35,14.24,37.9,0,52.13,0,73.46a45.55,45.55,0,1,0,91.09,0c0-21.33-14.29-35.56-26.8-48.11ZM31.94,39.42c6.08-5.94,11.88-11.6,13.6-18,1.73,6.38,7.53,12,13.61,18s12.57,12.3,16.33,20.34l-.3,0a49.22,49.22,0,0,1-5.4-1.26,43.64,43.64,0,0,1-6.86-2.66c-.24-.12-.45-.23-.63-.34a3.12,3.12,0,0,1-.74-.57c-.38-.45-.27-.9-.32-1.71,0-.47-.08-.91-.13-1.33a13.57,13.57,0,0,0-.48-2.26,8.16,8.16,0,0,0-.37-.95,6.09,6.09,0,0,0-.78-1.26,4.85,4.85,0,0,0-.49-.52,5.19,5.19,0,0,0-2.83-1.29,8.18,8.18,0,0,0-.89-.08,11.14,11.14,0,0,0-1.51.05,17.16,17.16,0,0,0-1.72.26l-.57.12L51,46l-.3,0H50.5a1.16,1.16,0,0,1-.42-.16l-.63-.39a9.7,9.7,0,0,0-1-.51,9.85,9.85,0,0,0-1-.36,7.3,7.3,0,0,0-4,0,8.87,8.87,0,0,0-1,.36,8.68,8.68,0,0,0-1,.51l-.3.19-.23.14-.32.17a1.08,1.08,0,0,1-.45,0,4.43,4.43,0,0,1-.49-.08l-.8-.17a13.78,13.78,0,0,0-3.22-.31,7,7,0,0,0-1.72.26,4.79,4.79,0,0,0-2,1.11,4,4,0,0,0-.49.52,5.72,5.72,0,0,0-.79,1.26c-.11.24-.21.5-.31.77a13.79,13.79,0,0,0-.58,2.8c0,.31-.06.63-.08,1,0,.16,0,.3,0,.44s0,.26,0,.37a1.47,1.47,0,0,1-.19.73,1.66,1.66,0,0,1-.25.3,3.34,3.34,0,0,1-.6.44,7,7,0,0,1-.63.34c-1.1.54-2.23,1-3.37,1.48-.58.22-1.15.43-1.73.62a46.86,46.86,0,0,1-5.34,1.47c-.6.13-1.21.25-1.81.35l-.21,0C19.35,51.71,25.91,45.3,31.94,39.42ZM58.53,52.63c0,.57-.12.56-.43.35a39.72,39.72,0,0,1-4.9-4c-.35-.34-.4-.57.16-.65,1.88-.3,3.12-.11,3.86.57S58.35,50.82,58.53,52.63ZM37.78,49a38.28,38.28,0,0,1-4.9,4c-.31.21-.48.22-.42-.35.17-1.81.57-3.05,1.3-3.72s2-.87,3.86-.57C38.19,48.42,38.13,48.65,37.78,49Zm40.76,30.1-.33-.23C69.63,73.1,61.46,66.83,54.47,59c-.27-.34-.78.05-.55.42,5.67,9.28,14,15.75,22.71,21.63a4.21,4.21,0,0,1,.94.85,3.82,3.82,0,0,1,.64,3.5,4.7,4.7,0,0,1-3.15,3.45l-.13-.12a131.49,131.49,0,0,1-22.19-27,.34.34,0,0,0-.61.32C56.5,72.73,63.36,81.31,71.38,89.13a8.94,8.94,0,0,1,2,2.23,3.75,3.75,0,0,1,.17,2.52,5.67,5.67,0,0,1-4.31,4.33,2.88,2.88,0,0,1-1.79-.07c-.91-.38-1.32-1.44-2.1-2.93C60,84.92,54.83,74.46,50.47,63.68a.34.34,0,0,0-.65.2c2.75,11.85,8.15,23,13.74,33.64.56,1.07,1.12,1.78,1,2.92A4.79,4.79,0,0,1,64,101.9a6,6,0,0,1-7.06,3,6.14,6.14,0,0,1-.9-.33c-1.65-.75-1.6-1.81-2.11-3.9-2.84-11.77-4.45-23.85-6.45-35.8a.34.34,0,0,0-.68,0,167.44,167.44,0,0,0,4.75,37.23c.46,1.88.63,2.34-.37,3.62L51,106A7.21,7.21,0,0,1,40,106c-.07-.08-.11-.14-.17-.22-1-1.27-.82-1.73-.36-3.6A168,168,0,0,0,44.2,65a.34.34,0,0,0-.68,0c-2,12-3.62,24-6.46,35.8-.5,2.07-.45,3.13-2.07,3.88a5.85,5.85,0,0,1-.94.35,6,6,0,0,1-7.06-3,4.35,4.35,0,0,1-.52-1.54c-.13-1.09.41-1.8,1-2.84,5.6-10.68,11-21.79,13.74-33.64a.34.34,0,0,0-.65-.2C36.16,74.46,31,84.92,25.6,95.21c-.76,1.45-1.16,2.49-2,2.91a2.82,2.82,0,0,1-1.87.09,5.67,5.67,0,0,1-4.31-4.33,3.71,3.71,0,0,1,.22-2.61,9.42,9.42,0,0,1,2-2.14c8-7.82,14.87-16.4,19.24-27.07a.34.34,0,0,0-.6-.32,131.65,131.65,0,0,1-22.13,27l-.19.19a4.68,4.68,0,0,1-3.15-3.45,3.8,3.8,0,0,1,.71-3.6,4.43,4.43,0,0,1,.87-.75c8.74-5.88,17-12.35,22.7-21.63.23-.37-.28-.76-.55-.42-7,7.76-15.1,14-23.64,19.76l-.42.29a4.59,4.59,0,0,1-1-4.86,3.75,3.75,0,0,1,1.09-1.64,9.14,9.14,0,0,1,2.15-1.13c7.94-3.55,15.87-8,21.38-15.09.25-.32-.15-.77-.48-.5-6.83,5.63-14.78,9.9-22.79,13.42l-.17.08a4.43,4.43,0,0,1,0-5.24,3.41,3.41,0,0,1,1.8-1.34,20.63,20.63,0,0,1,2.37-.44c9.56-1.78,18.13-6,24.82-13.34a5,5,0,0,1,7.9,0c6.7,7.34,15.26,11.56,24.82,13.34a16.7,16.7,0,0,1,2.49.48,3.44,3.44,0,0,1,1.68,1.3,4.41,4.41,0,0,1-.05,5.24l-.06,0c-8-3.53-16-7.81-22.89-13.47a.35.35,0,0,0-.48.5c5.5,7,13.43,11.54,21.37,15.09a8.1,8.1,0,0,1,2.26,1.22,3.8,3.8,0,0,1,1,1.55,4.59,4.59,0,0,1-1,4.86Z" fill="#293156"/><path d="M322.92,35.43a4.32,4.32,0,0,0-7,0,10.62,10.62,0,0,0-1.52,4.5,49.19,49.19,0,0,0-.41,6.93,48.53,48.53,0,0,0,.41,6.9,10.52,10.52,0,0,0,1.52,4.47,4.34,4.34,0,0,0,7,0,10.37,10.37,0,0,0,1.52-4.48,49.19,49.19,0,0,0,.41-6.93,48.93,48.93,0,0,0-.41-6.9,10.67,10.67,0,0,0-1.52-4.53Zm-.44,18.06a8.69,8.69,0,0,1-1.18,3.63,2.13,2.13,0,0,1-1.9.93,2.1,2.1,0,0,1-1.89-.95,8.74,8.74,0,0,1-1.19-3.64,46.06,46.06,0,0,1-.39-6.61,46.71,46.71,0,0,1,.39-6.64,8.79,8.79,0,0,1,1.19-3.66,2.36,2.36,0,0,1,3.78,0,8.85,8.85,0,0,1,1.19,3.69,46.84,46.84,0,0,1,.39,6.61,47.11,47.11,0,0,1-.39,6.64Z" fill="#293156"/><path d="M332.32,36.06h0a14.61,14.61,0,0,0-4.73-7.14,12.89,12.89,0,0,0-8.19-2.54,13.49,13.49,0,0,0-8.51,2.54,13.77,13.77,0,0,0-4.57,7.17,29.64,29.64,0,0,0-.82,3.77h-13l2.41-2.21c2.3-2.13,4.28-4.07,5.88-5.77a21.47,21.47,0,0,0,3.78-5.39,14.49,14.49,0,0,0,1.31-6.19,10.19,10.19,0,0,0-1.67-5.81,11.56,11.56,0,0,0-4.63-4,15.72,15.72,0,0,0-7-1.45,20.42,20.42,0,0,0-6.35.87,18.37,18.37,0,0,0-4.62,2.24A35.3,35.3,0,0,0,278,15l-.71.64,6.18,7.25.75-.63a22.3,22.3,0,0,1,4.06-2.79,7.54,7.54,0,0,1,3.47-.9,3.74,3.74,0,0,1,2.41.71,2.62,2.62,0,0,1,.79,2.17,6.11,6.11,0,0,1-.61,2.67,15.33,15.33,0,0,1-2.26,3.14c-1.12,1.26-2.64,2.89-4.52,4.84l-9.66,9.77v7.48H305.1a32.54,32.54,0,0,0,1.38,8.24,14.53,14.53,0,0,0,4.7,7.15,13,13,0,0,0,8.24,2.54,14.37,14.37,0,0,0,6.71-1.44,11.69,11.69,0,0,0,4.51-4.19,18.91,18.91,0,0,0,2.44-6.43,42.93,42.93,0,0,0,.73-8.38,35,35,0,0,0-1.48-10.8ZM304.84,47.38H279.89v-4.7l9.1-9.21c1.91-2,3.45-3.63,4.58-4.91A16.67,16.67,0,0,0,296.13,25a8,8,0,0,0,.82-3.53,4.47,4.47,0,0,0-1.54-3.71,5.67,5.67,0,0,0-3.63-1.14,9.56,9.56,0,0,0-4.37,1.12,23.22,23.22,0,0,0-3.66,2.42l-3.67-4.3q1.29-1.1,2.7-2.07a15.77,15.77,0,0,1,4.12-2,18.6,18.6,0,0,1,5.73-.77,13.72,13.72,0,0,1,6.11,1.25,9.65,9.65,0,0,1,3.85,3.31,8.35,8.35,0,0,1,1.35,4.73,12.52,12.52,0,0,1-1.13,5.36,19.29,19.29,0,0,1-3.43,4.88c-1.56,1.67-3.51,3.58-5.78,5.67l-4.24,3.9v1.74h15.47v5.53Zm26.29,7.47A17,17,0,0,1,329,60.61a9.65,9.65,0,0,1-3.75,3.49,12.48,12.48,0,0,1-5.8,1.21,11.05,11.05,0,0,1-7-2.12,12.55,12.55,0,0,1-4-6.21A33.33,33.33,0,0,1,307,46.84a37.09,37.09,0,0,1,1.23-10.22,11.85,11.85,0,0,1,3.9-6.18,11.51,11.51,0,0,1,7.29-2.12,11,11,0,0,1,7,2.12,12.77,12.77,0,0,1,4.07,6.21,32.84,32.84,0,0,1,1.38,10.18,40.46,40.46,0,0,1-.7,8Z" fill="#293156"/><path d="M331.46,89.85a11.35,11.35,0,0,0-4.58-4.38A13.8,13.8,0,0,0,320.44,84a17.41,17.41,0,0,0-3,.2l-.56.11.38-4.12h13.33V70.62H307.7l-.85,11.62H292.53L294.94,80c2.31-2.13,4.29-4.08,5.88-5.77a21.47,21.47,0,0,0,3.78-5.39,14.49,14.49,0,0,0,1.31-6.19,10.19,10.19,0,0,0-1.67-5.81,11.56,11.56,0,0,0-4.63-4,15.72,15.72,0,0,0-7-1.45,20.42,20.42,0,0,0-6.35.87,18.37,18.37,0,0,0-4.62,2.24A35.3,35.3,0,0,0,278,57.39l-.71.64,6.18,7.25.75-.63a22,22,0,0,1,4.06-2.79,7.54,7.54,0,0,1,3.47-.9,3.74,3.74,0,0,1,2.41.71,2.61,2.61,0,0,1,.79,2.17,6,6,0,0,1-.61,2.66,15.33,15.33,0,0,1-2.26,3.14c-1.13,1.27-2.66,2.9-4.52,4.84l-9.66,9.77v7.48h28.24v.06L310.53,94l.36-.09c.69-.17,1.52-.36,2.49-.55a14.33,14.33,0,0,1,2.72-.27,7.58,7.58,0,0,1,4.66,1.14,3.62,3.62,0,0,1,1.35,3.07,4.45,4.45,0,0,1-.63,2.5,3.86,3.86,0,0,1-1.81,1.44c-1.81.76-4.86.71-8.16-.18a26.57,26.57,0,0,1-4.57-1.63l-1.42-.69v9.76l.54.27a19.52,19.52,0,0,0,4.91,1.62,31,31,0,0,0,6,.55,21.12,21.12,0,0,0,8.87-1.66,12,12,0,0,0,5.5-4.91,15.11,15.11,0,0,0,1.83-7.62,13.59,13.59,0,0,0-1.67-6.94Zm-51.57-.08v-4.7l9.1-9.21c1.89-2,3.44-3.61,4.59-4.9a16.67,16.67,0,0,0,2.56-3.58,8,8,0,0,0,.82-3.53,4.47,4.47,0,0,0-1.54-3.71A5.67,5.67,0,0,0,291.79,59a9.56,9.56,0,0,0-4.37,1.12,22.34,22.34,0,0,0-3.66,2.42l-3.67-4.3q1.29-1.1,2.7-2.07a15.77,15.77,0,0,1,4.12-2,18.6,18.6,0,0,1,5.73-.77,13.72,13.72,0,0,1,6.11,1.25A9.57,9.57,0,0,1,302.6,58,8.53,8.53,0,0,1,304,62.7a12.49,12.49,0,0,1-1.13,5.36,19.29,19.29,0,0,1-3.43,4.88c-1.56,1.66-3.5,3.57-5.78,5.67l-4.24,3.9v1.74h17.32L306,89.8H279.89Zm49.7,13.65a10.09,10.09,0,0,1-4.62,4.1,19.19,19.19,0,0,1-8,1.47,28.63,28.63,0,0,1-5.58-.51,18.74,18.74,0,0,1-3.87-1.19v-5.45A31.33,31.33,0,0,0,311,103c3.74,1,7.19,1,9.43.09a5.91,5.91,0,0,0,2.69-2.16,6.32,6.32,0,0,0,1-3.59A5.58,5.58,0,0,0,322,92.7c-1.34-1-3.26-1.56-5.88-1.56a15.82,15.82,0,0,0-3.1.31c-.84.16-1.58.33-2.23.48l-2.53-1.29.49-6.65.2-1.74h-.08l.7-9.65h19.08v5.61H315.45l-.78,8.49,1.27-.23c.61-.11,1.23-.22,1.87-.35a15,15,0,0,1,2.62-.17A11.86,11.86,0,0,1,326,87.22a9.32,9.32,0,0,1,3.79,3.63,11.66,11.66,0,0,1,1.4,5.94,13.28,13.28,0,0,1-1.56,6.64Z" fill="#293156"/><path d="M109.21,108.87a1.33,1.33,0,0,1-.22.78,1.42,1.42,0,0,1-.63.49,2.4,2.4,0,0,1-1,.17,3.32,3.32,0,0,1-.55,0l-.48-.08a2.8,2.8,0,0,1-.38-.13v-.62a3.43,3.43,0,0,0,.64.21,3.48,3.48,0,0,0,.79.09,1.76,1.76,0,0,0,.64-.1.84.84,0,0,0,.39-.29.72.72,0,0,0,.13-.44.77.77,0,0,0-.11-.42.92.92,0,0,0-.37-.32,4.54,4.54,0,0,0-.73-.31,4.55,4.55,0,0,1-.58-.26,1.67,1.67,0,0,1-.41-.32,1.22,1.22,0,0,1-.25-.41,1.44,1.44,0,0,1-.08-.53,1.18,1.18,0,0,1,.21-.7,1.4,1.4,0,0,1,.58-.45,2.08,2.08,0,0,1,.85-.16,3.64,3.64,0,0,1,.77.08,3,3,0,0,1,.64.21l-.2.55a3.29,3.29,0,0,0-.58-.19,2.75,2.75,0,0,0-.65-.08,1.38,1.38,0,0,0-.54.09.7.7,0,0,0-.32.26.71.71,0,0,0-.11.39.83.83,0,0,0,.11.43.9.9,0,0,0,.35.31,4.37,4.37,0,0,0,.66.29,5,5,0,0,1,.76.35,1.36,1.36,0,0,1,.47.45,1.26,1.26,0,0,1,.16.67Z" fill="#293156"/><path d="M114.88,110.24l-.62-1.58h-2l-.61,1.58H111l2-5.13h.58l2,5.13h-.66Zm-1.38-3.7s0-.11-.07-.21-.07-.2-.1-.31-.06-.19-.07-.25c0,.1-.05.19-.08.29s-.05.19-.08.27,0,.15-.07.21l-.58,1.55h1.62Z" fill="#293156"/><path d="M121.73,110.24H121L118.25,106h0c0,.11,0,.24,0,.39s0,.31,0,.48,0,.34,0,.52v2.86h-.59v-5.11h.74l2.73,4.23h0c0-.08,0-.19,0-.34s0-.32,0-.5,0-.35,0-.5v-2.88h.6v5.09Z" fill="#293156"/><path d="M126.16,110.24h-.64V105.7h-1.6v-.57h3.83v.57h-1.59Z" fill="#293156"/><path d="M131.4,110.24h-1.85v-.37l.6-.14v-4.09l-.6-.14v-.37h1.85v.37l-.6.14v4.09l.6.14Z" fill="#293156"/><path d="M137,110.24l-.62-1.58h-2l-.61,1.58h-.65l2-5.13h.58l2,5.13H137Zm-1.38-3.7-.07-.21c0-.1-.07-.2-.1-.31s-.06-.19-.07-.25c0,.1-.05.19-.08.29s0,.19-.08.27l-.07.21-.58,1.55h1.62l-.57-1.55Z" fill="#293156"/><path d="M141.89,107.54h1.77V110a5.12,5.12,0,0,1-.84.2,6.85,6.85,0,0,1-1,.06,2.63,2.63,0,0,1-1.34-.32,2,2,0,0,1-.83-.91,3.21,3.21,0,0,1-.28-1.4,2.88,2.88,0,0,1,.31-1.39,2.16,2.16,0,0,1,.91-.91,3,3,0,0,1,1.43-.33,4.12,4.12,0,0,1,.81.08,3.69,3.69,0,0,1,.71.22l-.24.56a4.34,4.34,0,0,0-.61-.21,2.76,2.76,0,0,0-.71-.08,2,2,0,0,0-1,.25,1.7,1.7,0,0,0-.67.71,2.48,2.48,0,0,0-.23,1.1,2.74,2.74,0,0,0,.2,1.08,1.53,1.53,0,0,0,.62.73,2.12,2.12,0,0,0,1.11.26,3.11,3.11,0,0,0,.57,0,2.5,2.5,0,0,0,.43-.09v-1.52h-1.12v-.55Z" fill="#293156"/><path d="M150.77,107.68a3.66,3.66,0,0,1-.15,1.08,2.29,2.29,0,0,1-.45.83,2,2,0,0,1-.74.54,2.51,2.51,0,0,1-1,.19,2.57,2.57,0,0,1-1-.19,1.92,1.92,0,0,1-.74-.54,2.28,2.28,0,0,1-.44-.83,3.62,3.62,0,0,1-.14-1.08,3.42,3.42,0,0,1,.26-1.37,2,2,0,0,1,.78-.92,2.45,2.45,0,0,1,1.33-.33,2.31,2.31,0,0,1,1.29.33,2,2,0,0,1,.79.92,3.27,3.27,0,0,1,.27,1.38Zm-4,0a3.07,3.07,0,0,0,.18,1.11,1.49,1.49,0,0,0,.55.72,1.93,1.93,0,0,0,1.9,0,1.49,1.49,0,0,0,.55-.72,3.07,3.07,0,0,0,.18-1.11,2.49,2.49,0,0,0-.4-1.51,1.46,1.46,0,0,0-1.27-.55,1.67,1.67,0,0,0-1,.25,1.41,1.41,0,0,0-.55.71,3.07,3.07,0,0,0-.18,1.11Z" fill="#293156"/><path d="M160.72,107.64a3,3,0,0,1-.32,1.44,2,2,0,0,1-.91.87,3.19,3.19,0,0,1-1.44.29h-1.42v-5.11h1.57a2.94,2.94,0,0,1,1.34.29,2,2,0,0,1,.87.84,2.76,2.76,0,0,1,.31,1.38Zm-.68,0a2.33,2.33,0,0,0-.23-1.12,1.43,1.43,0,0,0-.66-.65,2.4,2.4,0,0,0-1.05-.21h-.84v4H158a2.16,2.16,0,0,0,1.56-.51,2,2,0,0,0,.52-1.52Z" fill="#293156"/><path d="M166.14,110.24h-2.85v-5.11h2.85v.57h-2.21v1.6H166v.56h-2.08v1.83h2.21v.55Z" fill="#293156"/><path d="M174.17,105.62a2,2,0,0,0-.74.14,1.43,1.43,0,0,0-.56.41,1.93,1.93,0,0,0-.35.65,2.84,2.84,0,0,0-.12.86,2.75,2.75,0,0,0,.2,1.09,1.56,1.56,0,0,0,.59.72,1.76,1.76,0,0,0,1,.25,3.31,3.31,0,0,0,.64-.06l.59-.14v.56a4,4,0,0,1-.59.16,5,5,0,0,1-.73,0,2.48,2.48,0,0,1-1.3-.32,1.91,1.91,0,0,1-.78-.92,3.53,3.53,0,0,1-.26-1.4,3.23,3.23,0,0,1,.16-1.06,2.33,2.33,0,0,1,.47-.83,2.14,2.14,0,0,1,.77-.54,2.69,2.69,0,0,1,1.05-.19,3.77,3.77,0,0,1,.76.08,2.92,2.92,0,0,1,.65.22l-.26.54a3.27,3.27,0,0,0-.53-.19,2.09,2.09,0,0,0-.63-.08Z" fill="#293156"/><path d="M182.25,107.68a3.66,3.66,0,0,1-.15,1.08,2.29,2.29,0,0,1-.45.83,2,2,0,0,1-.74.54,2.51,2.51,0,0,1-1,.19,2.57,2.57,0,0,1-1-.19,1.92,1.92,0,0,1-.74-.54,2.28,2.28,0,0,1-.44-.83,3.62,3.62,0,0,1-.14-1.08,3.42,3.42,0,0,1,.26-1.37,2,2,0,0,1,.78-.92,2.45,2.45,0,0,1,1.33-.33,2.31,2.31,0,0,1,1.29.33,2,2,0,0,1,.79.92,3.27,3.27,0,0,1,.27,1.38Zm-4,0a3.07,3.07,0,0,0,.18,1.11,1.49,1.49,0,0,0,.55.72,1.93,1.93,0,0,0,1.9,0,1.49,1.49,0,0,0,.55-.72,3.07,3.07,0,0,0,.18-1.11,2.49,2.49,0,0,0-.4-1.51,1.46,1.46,0,0,0-1.27-.55,1.67,1.67,0,0,0-1,.25,1.41,1.41,0,0,0-.55.71,3.07,3.07,0,0,0-.18,1.11Z" fill="#293156"/><path d="M187.07,110.24l-1.68-4.48h0c0,.1,0,.22,0,.36s0,.31,0,.48v3.63h-.59v-5.11h1l1.57,4.19h0l1.6-4.19h.94v5.11h-.64v-3.64c0-.17,0-.32,0-.47s0-.27,0-.37h0l-1.7,4.47h-.53Z" fill="#293156"/><path d="M194.09,105.13a2.24,2.24,0,0,1,1.46.39,1.36,1.36,0,0,1,.46,1.11,1.72,1.72,0,0,1-.1.6,1.34,1.34,0,0,1-.34.52,1.74,1.74,0,0,1-.63.36,3,3,0,0,1-1,.13h-.59v2h-.64v-5.11h1.35Zm-.06.55h-.65v2h.52a3.08,3.08,0,0,0,.81-.1.94.94,0,0,0,.48-.33,1.07,1.07,0,0,0,.16-.6.87.87,0,0,0-.31-.74,1.64,1.64,0,0,0-1-.24Z" fill="#293156"/><path d="M203,107.68a3.66,3.66,0,0,1-.15,1.08,2.29,2.29,0,0,1-.45.83,2,2,0,0,1-.74.54,2.51,2.51,0,0,1-1,.19,2.57,2.57,0,0,1-1-.19,1.92,1.92,0,0,1-.74-.54,2.28,2.28,0,0,1-.44-.83,3.62,3.62,0,0,1-.14-1.08,3.42,3.42,0,0,1,.26-1.37,2,2,0,0,1,.78-.92,2.45,2.45,0,0,1,1.33-.33,2.31,2.31,0,0,1,1.29.33,2,2,0,0,1,.79.92,3.27,3.27,0,0,1,.27,1.38Zm-4,0a3.07,3.07,0,0,0,.18,1.11,1.49,1.49,0,0,0,.55.72,1.93,1.93,0,0,0,1.9,0,1.49,1.49,0,0,0,.55-.72,3.07,3.07,0,0,0,.18-1.11,2.49,2.49,0,0,0-.4-1.51,1.46,1.46,0,0,0-1.27-.55,1.67,1.67,0,0,0-1,.25,1.41,1.41,0,0,0-.55.71,3.07,3.07,0,0,0-.18,1.11Z" fill="#293156"/><path d="M208.42,108.87a1.33,1.33,0,0,1-.22.78,1.42,1.42,0,0,1-.63.49,2.4,2.4,0,0,1-1,.17,3.32,3.32,0,0,1-.55,0l-.48-.08a2.8,2.8,0,0,1-.38-.13v-.62a3.43,3.43,0,0,0,.64.21,3.48,3.48,0,0,0,.79.09,1.76,1.76,0,0,0,.64-.1.84.84,0,0,0,.39-.29.72.72,0,0,0,.13-.44.77.77,0,0,0-.11-.42.92.92,0,0,0-.37-.32,4.54,4.54,0,0,0-.73-.31,4.55,4.55,0,0,1-.58-.26,1.67,1.67,0,0,1-.41-.32,1.22,1.22,0,0,1-.25-.41,1.44,1.44,0,0,1-.08-.53,1.18,1.18,0,0,1,.21-.7,1.4,1.4,0,0,1,.58-.45,2.08,2.08,0,0,1,.85-.16,3.64,3.64,0,0,1,.77.08,3,3,0,0,1,.64.21l-.2.55a3.29,3.29,0,0,0-.58-.19,2.75,2.75,0,0,0-.65-.08,1.38,1.38,0,0,0-.54.09.7.7,0,0,0-.32.26.71.71,0,0,0-.11.39.83.83,0,0,0,.11.43.9.9,0,0,0,.35.31,4.37,4.37,0,0,0,.66.29,5,5,0,0,1,.76.35,1.36,1.36,0,0,1,.47.45,1.26,1.26,0,0,1,.16.67Z" fill="#293156"/><path d="M212.5,110.24h-.64V105.7h-1.6v-.57h3.83v.57H212.5Z" fill="#293156"/><path d="M219.14,110.24h-2.85v-5.11h2.85v.57h-2.21v1.6H219v.56h-2.08v1.83h2.21v.55Z" fill="#293156"/><path d="M221.7,110.24v-5.11h.64v4.54h2.23v.57H221.7Z" fill="#293156"/><path d="M230.09,110.24l-.62-1.58h-2l-.61,1.58h-.65l2-5.13h.58l2,5.13h-.66Zm-1.39-3.7-.07-.21c0-.1-.07-.2-.1-.31s-.06-.19-.07-.25c0,.1-.05.19-.08.29s0,.19-.08.27l-.07.21-.58,1.55h1.62l-.57-1.55Z" fill="#293156"/></svg>